<svg xmlns="http://www.w3.org/2000/svg" version="1.1" x="0" y="0" width="1396" height="668" viewBox="60 60 1396 668"><path d="M844.2 545C825.8 545 811.8 540 802.3 530.1 792.8 520.1 788 505.8 788 487.1 788 468.4 793.1 453.9 803.4 443.6 813.7 433.3 828.3 428.1 847.3 428.1 860.4 428.1 872.7 431 884.2 436.7L872.8 465.5C868.1 463.4 863.7 461.8 859.7 460.6 855.8 459.3 851.6 458.7 847.3 458.7 841 458.7 836.1 461.2 832.7 466.1 829.2 471 827.5 478 827.5 486.9 827.5 505 834.2 514 847.5 514 858.9 514 869.9 510.7 880.3 504.1L880.3 535C870.3 541.7 858.3 545 844.2 545M933.3 486.3C933.3 496 934.6 503.4 937.2 508.5 939.8 513.6 944.1 516.1 950.2 516.1 956.2 516.1 960.5 513.6 963 508.5 965.5 503.4 966.7 496 966.7 486.3 966.7 476.7 965.5 469.4 962.9 464.5 960.4 459.6 956.1 457.1 950 457.1 944 457.1 939.8 459.6 937.2 464.5 934.6 469.3 933.3 476.6 933.3 486.3M1006.3 486.3C1006.3 504.8 1001.4 519.2 991.4 529.5 981.5 539.8 967.6 545 949.8 545 932.7 545 919.1 539.7 909 529.2 898.8 518.6 893.8 504.3 893.8 486.3 893.8 467.9 898.7 453.6 908.7 443.4 918.6 433.2 932.5 428.1 950.4 428.1 961.5 428.1 971.3 430.5 979.8 435.2 988.2 439.9 994.8 446.7 999.4 455.5 1004 464.3 1006.3 474.6 1006.3 486.3M1075.4 514.2C1081.6 514.2 1086 512.3 1088.6 508.3 1091.1 504.4 1092.5 498.4 1092.7 490.2L1092.7 487.1C1092.7 477.2 1091.3 470.1 1088.4 465.9 1085.6 461.6 1081.1 459.5 1075 459.5 1069.9 459.5 1065.9 461.9 1063.1 466.7 1060.3 471.6 1058.9 478.4 1058.9 487.3 1058.9 496.1 1060.3 502.8 1063.1 507.3 1066 511.9 1070.1 514.2 1075.4 514.2M1059.5 545C1051.4 545 1044.4 542.7 1038.4 538.1 1032.4 533.5 1027.8 526.8 1024.5 517.9 1021.2 509 1019.6 498.6 1019.6 486.7 1019.6 468.4 1023.2 454 1030.6 443.7 1038 433.3 1048.1 428.1 1061 428.1 1067.3 428.1 1072.8 429.4 1077.5 431.9 1082.3 434.5 1086.6 438.7 1090.5 444.7L1091.3 444.7C1090 435.9 1089.4 427 1089.4 418.2L1089.4 388 1128.6 388 1128.6 543 1099.3 543 1090.9 528.8 1089.4 528.8C1082.7 539.6 1072.7 545 1059.5 545M1203.6 454.6C1199 454.6 1195.1 456.1 1192.1 459 1189 461.9 1187.2 466.4 1186.6 472.6L1220.1 472.6C1219.9 467.1 1218.4 462.8 1215.4 459.5 1212.5 456.3 1208.5 454.6 1203.6 454.6M1205.8 545C1187.1 545 1172.5 540 1162.1 530 1151.7 520 1146.5 505.8 1146.5 487.3 1146.5 468.3 1151.3 453.6 1161 443.4 1170.6 433.2 1184.3 428.1 1202.2 428.1 1219.1 428.1 1232.3 432.6 1241.5 441.4 1250.8 450.3 1255.4 463.1 1255.4 479.7L1255.4 497.1 1185.8 497.1C1186.1 503.4 1188.4 508.3 1192.8 511.9 1197.1 515.5 1203 517.3 1210.5 517.3 1217.3 517.3 1223.6 516.7 1229.4 515.4 1235.1 514.1 1241.3 511.9 1248 508.7L1248 536.7C1241.9 539.9 1235.6 542 1229.1 543.2 1222.6 544.4 1214.9 545 1205.8 545M1345.4 430.1C1348.8 430.1 1352 430.4 1355.1 430.9L1357.3 431.3 1353.8 468.1C1350.6 467.3 1346.2 466.9 1340.6 466.9 1332.1 466.9 1325.9 468.8 1322.1 472.7 1318.2 476.6 1316.3 482.2 1316.3 489.5L1316.3 545 1277.4 545 1277.4 432.1 1306.3 432.1 1312.4 450.1 1314.3 450.1C1317.6 444.1 1322.1 439.3 1327.9 435.6 1333.7 431.9 1339.5 430.1 1345.4 430.1M1456 508.3C1456 520.4 1451.9 529.6 1443.7 535.7 1435.4 541.9 1423.6 545 1408.2 545 1399.9 545 1392.6 544.6 1386.4 543.7 1380.3 542.8 1374 541.1 1367.5 538.7L1367.5 507.5C1373.6 510.2 1380.2 512.4 1387.4 514.1 1394.6 515.8 1401 516.7 1406.6 516.7 1415.1 516.7 1419.3 514.8 1419.3 510.9 1419.3 508.9 1418.1 507.2 1415.8 505.6 1413.4 504 1406.5 501 1395.2 496.5 1384.9 492.2 1377.6 487.4 1373.5 482 1369.4 476.6 1367.3 469.7 1367.3 461.4 1367.3 450.9 1371.4 442.8 1379.5 436.9 1387.6 431.1 1399 428.1 1413.8 428.1 1421.2 428.1 1428.2 429 1434.8 430.6 1441.3 432.2 1448.1 434.6 1455.1 437.7L1444.6 462.8C1439.4 460.5 1433.9 458.5 1428.1 456.9 1422.4 455.3 1417.7 454.4 1414 454.4 1407.6 454.4 1404.5 456 1404.5 459.1 1404.5 461.1 1405.6 462.7 1407.8 464.1 1410 465.4 1416.4 468.2 1427 472.4 1434.9 475.6 1440.8 478.8 1444.7 481.9 1448.6 485.1 1451.4 488.7 1453.3 492.9 1455.1 497.2 1456 502.3 1456 508.3M814.6 354.8C806.3 354.8 799.9 352.2 795.1 347 790.4 341.8 788 334.6 788 325.4 788 316.3 789.7 307.8 793.2 299.9 796.7 292 801.4 286 807.3 281.8 813.2 277.7 820 275.6 827.8 275.6 834.1 275.6 839.8 276.6 844.9 278.6L842.9 285C837.8 282.8 832.7 281.7 827.4 281.7 821.4 281.7 815.9 283.5 811 287.1 806.1 290.7 802.3 295.9 799.5 302.7 796.7 309.5 795.3 317 795.3 325.3 795.3 332.7 797 338.4 800.5 342.4 804 346.4 808.9 348.4 815.3 348.4 818.6 348.4 821.7 348.1 824.6 347.5 827.4 346.9 830.5 345.8 833.9 344.3L833.9 350.7C828.4 353.4 822 354.8 814.6 354.8M889 281.4C883.1 281.4 877.9 283.2 873.2 286.9 868.5 290.6 864.8 295.9 862 302.8 859.2 309.6 857.8 316.9 857.8 324.6 857.8 340.7 864.5 348.7 877.8 348.7 883.8 348.7 889.1 346.9 893.8 343.2 898.4 339.6 902.1 334.3 904.9 327.2 907.6 320.1 909 312.4 909 303.9 909 296.7 907.3 291.1 903.8 287.2 900.4 283.3 895.4 281.4 889 281.4M889.5 275.3C898 275.3 904.6 277.9 909.3 283 913.9 288.1 916.2 295.1 916.2 304.1 916.2 313.3 914.5 322 911.2 330 907.8 338.1 903.2 344.2 897.3 348.4 891.5 352.6 884.7 354.8 877.1 354.8 868.4 354.8 861.8 352.2 857.3 347.1 852.8 341.9 850.5 334.6 850.5 325 850.5 316 852.2 307.6 855.7 299.8 859.1 291.9 863.8 285.9 869.6 281.7 875.5 277.4 882.1 275.3 889.5 275.3M913.9 388C911.6 388 909.2 387.6 906.7 386.7L906.7 380.3C909.2 381.1 911.5 381.5 913.8 381.5 917.9 381.5 921.1 380.2 923.2 377.7 925.4 375.2 927.2 370.9 928.6 364.6L946 282.5 931.5 282.5 932.5 277.8 947 276.8 949.4 265.5C951.1 257.6 953.8 251.9 957.7 248.4 961.5 244.8 966.9 243 973.8 243 977.3 243 981.2 243.7 985.6 245.2L983.8 250.8C979.7 249.6 976.2 248.9 973.4 248.9 968.8 248.9 965.2 250.2 962.5 252.7 959.8 255.2 957.8 259.4 956.5 265.3L954 276.8 987.8 276.8 990.3 265.5C992 257.6 994.7 251.9 998.6 248.4 1002.4 244.8 1007.8 243 1014.7 243 1018.1 243 1022 243.7 1026.4 245.2L1024.7 250.8C1020.6 249.6 1017.1 248.9 1014.2 248.9 1009.7 248.9 1006 250.2 1003.3 252.8 1000.6 255.3 998.6 259.5 997.5 265.3L995 276.8 1012.5 276.8 1011.3 282.5 993.8 282.5 975.9 366.3C974.3 374.1 971.8 379.6 968.5 383 965.1 386.3 960.5 388 954.8 388 952.5 388 950.1 387.6 947.5 386.7L947.5 380.3C950 381.1 952.4 381.5 954.6 381.5 958.8 381.5 961.9 380.2 964.1 377.7 966.3 375.2 968 370.9 969.4 364.6L986.7 282.5 952.9 282.5 935.1 366.3C933.5 373.9 931.1 379.4 927.7 382.8 924.4 386.3 919.8 388 913.9 388M1049.6 281.7C1043.5 281.7 1037.7 284.4 1032.4 289.8 1027.1 295.2 1023.3 302.5 1020.9 311.5L1024.4 311.5C1048.8 311.5 1061 305.2 1061 292.5 1061 289.4 1059.9 286.8 1057.9 284.7 1055.8 282.7 1053.1 281.7 1049.6 281.7M1038.2 354.8C1030 354.8 1023.6 352.2 1019.1 347 1014.5 341.9 1012.2 334.7 1012.2 325.5 1012.2 317 1013.9 308.9 1017.2 301.1 1020.6 293.3 1025.2 287.1 1031.1 282.5 1036.9 277.9 1043.4 275.6 1050.5 275.6 1055.9 275.6 1060.2 277 1063.4 279.9 1066.6 282.8 1068.2 286.7 1068.2 291.6 1068.2 300.1 1064.3 306.6 1056.6 311 1048.9 315.5 1037.4 317.7 1022.2 317.7L1019.9 317.7C1019.6 319.8 1019.5 322.1 1019.5 324.6 1019.5 332.4 1021.2 338.3 1024.7 342.3 1028.2 346.4 1033.2 348.4 1039.8 348.4 1046 348.4 1052.5 346.7 1059.3 343.3L1059.3 349.9C1052.7 353.1 1045.7 354.8 1038.2 354.8M1115.4 281.7C1109.2 281.7 1103.4 284.4 1098.1 289.8 1092.8 295.2 1089 302.5 1086.6 311.5L1090.1 311.5C1114.5 311.5 1126.7 305.2 1126.7 292.5 1126.7 289.4 1125.7 286.8 1123.6 284.7 1121.5 282.7 1118.8 281.7 1115.4 281.7M1103.9 354.8C1095.7 354.8 1089.3 352.2 1084.8 347 1080.2 341.9 1077.9 334.7 1077.9 325.5 1077.9 317 1079.6 308.9 1082.9 301.1 1086.3 293.3 1090.9 287.1 1096.8 282.5 1102.6 277.9 1109.1 275.6 1116.2 275.6 1121.6 275.6 1125.9 277 1129.1 279.9 1132.3 282.8 1133.9 286.7 1133.9 291.6 1133.9 300.1 1130 306.6 1122.3 311 1114.6 315.5 1103.1 317.7 1087.9 317.7L1085.6 317.7C1085.3 319.8 1085.2 322.1 1085.2 324.6 1085.2 332.4 1086.9 338.3 1090.4 342.3 1093.9 346.4 1098.9 348.4 1105.5 348.4 1111.7 348.4 1118.3 346.7 1125.1 343.3L1125.1 349.9C1118.4 353.1 1111.4 354.8 1103.9 354.8M1202.9 276.8L1201.7 282.5 1181.6 282.5 1172.1 327.2C1171 331.9 1170.5 335.7 1170.5 338.8 1170.5 345.3 1173.5 348.6 1179.4 348.6 1182.6 348.6 1186.2 348 1190.2 346.7L1190.2 352.8C1185.4 354.1 1181.4 354.8 1178.1 354.8 1173.5 354.8 1169.9 353.5 1167.3 350.9 1164.8 348.4 1163.5 344.6 1163.5 339.8 1163.5 336.3 1164.2 331.5 1165.5 325.3L1174.7 282.5 1161.8 282.5 1162.8 277.8 1175.8 276.6 1182.7 258.8 1186.6 258.8 1182.7 276.8zM1226.2 348.4C1230.4 348.4 1234.5 347 1238.7 344.1 1242.9 341.1 1246.7 337.3 1250 332.4 1253.3 327.5 1255.8 322.1 1257.6 316.2 1259.3 310.3 1260.2 305.3 1260.2 301.2 1260.2 297.5 1259.6 294.1 1258.4 291.2 1257.1 288.3 1255.3 285.9 1252.9 284.2 1250.5 282.5 1247.5 281.7 1243.9 281.7 1238.1 281.7 1232.8 283.6 1228.1 287.4 1223.3 291.3 1219.5 297.1 1216.5 304.7 1213.4 312.4 1211.9 320 1211.9 327.6 1211.9 334.8 1213.1 340 1215.5 343.4 1217.8 346.7 1221.4 348.4 1226.2 348.4M1243.8 275.6C1254.7 275.6 1261.3 280.7 1263.5 291L1264 291 1268.1 276.8 1273.8 276.8 1257.6 353.4 1251.8 353.4 1255 334.1 1254.5 334.1C1250.6 340.7 1246.2 345.8 1241.3 349.4 1236.4 353 1230.8 354.8 1224.5 354.8 1211.3 354.8 1204.6 346 1204.6 328.4 1204.6 319.2 1206.4 310.3 1209.9 301.9 1213.5 293.5 1218.2 287 1224.1 282.5 1230.1 277.9 1236.6 275.6 1243.8 275.6M1330.7 281.7C1326.4 281.7 1322.2 283.1 1318 286 1313.8 288.9 1310 292.9 1306.6 297.9 1303.3 303 1300.7 308.5 1299.1 314.5 1297.4 320.4 1296.6 325.3 1296.6 329 1296.6 335 1298.1 339.8 1301.1 343.2 1304.2 346.7 1308.1 348.4 1312.9 348.4 1318.7 348.4 1324 346.5 1328.8 342.6 1333.5 338.7 1337.3 332.9 1340.4 325.3 1343.4 317.7 1344.9 310.1 1344.9 302.4 1344.9 295.3 1343.7 290.1 1341.4 286.7 1339.1 283.3 1335.6 281.7 1330.7 281.7M1313 354.5C1307.7 354.5 1303.3 353.1 1299.9 350.3 1296.4 347.6 1294.1 343.7 1293 338.6L1292.6 338.6 1288.7 353.4 1283 353.4 1306.2 243.8 1312.9 243.8C1306.7 273.3 1302.9 290.9 1301.4 296.7L1301.8 296.7C1306.2 289.3 1310.9 284 1315.9 280.5 1320.9 277.1 1326.4 275.3 1332.3 275.3 1345.6 275.3 1352.2 284.1 1352.2 301.7 1352.2 311.3 1350.4 320.2 1346.8 328.5 1343.2 336.8 1338.5 343.2 1332.6 347.7 1326.7 352.2 1320.2 354.5 1313 354.5M1371.2 353.4L1364.5 353.4 1388.2 243.8 1394.8 243.8zM1437.4 281.7C1431.3 281.7 1425.5 284.4 1420.2 289.8 1414.9 295.2 1411.1 302.5 1408.7 311.5L1412.2 311.5C1436.6 311.5 1448.8 305.2 1448.8 292.5 1448.8 289.4 1447.8 286.8 1445.7 284.7 1443.6 282.7 1440.9 281.7 1437.4 281.7M1426 354.8C1417.8 354.8 1411.4 352.2 1406.9 347 1402.3 341.9 1400 334.7 1400 325.5 1400 317 1401.7 308.9 1405 301.1 1408.4 293.3 1413 287.1 1418.9 282.5 1424.7 277.9 1431.2 275.6 1438.3 275.6 1443.7 275.6 1448 277 1451.2 279.9 1454.4 282.8 1456 286.7 1456 291.6 1456 300.1 1452.1 306.6 1444.4 311 1436.7 315.5 1425.2 317.7 1410 317.7L1407.7 317.7C1407.4 319.8 1407.3 322.1 1407.3 324.6 1407.3 332.4 1409 338.3 1412.5 342.3 1416 346.4 1421 348.4 1427.6 348.4 1433.8 348.4 1440.4 346.7 1447.1 343.3L1447.1 349.9C1440.5 353.1 1433.5 354.8 1426 354.8M574 442C574 463.4 570.9 483.3 564.6 501.8 558.3 520.3 549.2 536.3 537.4 550L507.2 550C518.2 535 526.7 518.2 532.7 499.6 538.7 481.1 541.7 461.7 541.7 441.7 541.7 421.9 538.7 402.6 532.9 383.8 527.1 365 518.4 347.7 507 332L537.4 332C549.3 346.2 558.4 362.8 564.6 381.6 570.9 400.5 574 420.6 574 442M428 524.2L455.2 524.2 455.2 357.8 428 357.8 428 332 487 332 487 550 428 550zM422 550L318 550 318 533 422 533zM312 550L253 550 253 332 312 332 312 357.8 284.7 357.8 284.7 524.2 312 524.2zM331.8 270.2C326.2 270.2 320.2 271.9 313.6 275.2 307.1 278.5 300.9 283.1 295 289L295 265.7C306.1 254.4 319.3 248.7 334.5 248.7 341.4 248.7 347.8 249.4 353.5 250.8 359.3 252.3 366.7 254.9 375.8 258.8 383.7 262.2 390 264.5 394.7 265.8 399.4 267.1 404.1 267.7 408.7 267.7 414.2 267.7 420.2 266 426.8 262.6 433.4 259.2 439.4 254.6 445 248.7L445 272.1C434.6 283.4 421.5 289 405.8 289 398.9 289 392.6 288.3 386.8 286.8 381.1 285.3 373.7 282.6 364.7 278.8 357.2 275.7 351 273.5 346.4 272.2 341.7 270.9 336.8 270.2 331.8 270.2M331.8 207.3C325.9 207.3 319.7 209 313.1 212.5 306.5 216 300.5 220.5 295 226L295 202.9C305.9 191.6 319.1 186 334.5 186 341.7 186 348.2 186.8 354.2 188.5 360.1 190.1 367.3 192.7 375.8 196.2 382.9 199.2 388.9 201.4 393.8 202.8 398.7 204.1 403.7 204.8 408.7 204.8 414.4 204.8 420.5 203.1 427.2 199.7 433.8 196.2 439.7 191.7 445 186L445 209.3C434.7 220.6 421.6 226.3 405.8 226.3 398.7 226.3 392.1 225.5 386 223.9 379.9 222.2 372.8 219.7 364.7 216.2 356 212.7 349.5 210.4 345.1 209.1 340.8 207.9 336.3 207.3 331.8 207.3M394 60C209.5 60 60 209.5 60 394 60 578.5 209.5 728 394 728 578.5 728 728 578.5 728 394 728 209.5 578.5 60 394 60M394 98.1C434 98.1 472.7 106 509.1 121.4 544.4 136.3 576 157.6 603.2 184.8 630.4 212 651.7 243.6 666.6 278.9 682 315.3 689.9 354 689.9 394 689.9 434 682 472.7 666.6 509.1 651.7 544.4 630.4 576 603.2 603.2 576 630.4 544.4 651.7 509.1 666.6 472.7 682 434 689.9 394 689.9 354 689.9 315.3 682 278.9 666.6 243.6 651.7 212 630.4 184.8 603.2 157.6 576 136.3 544.4 121.4 509.1 106 472.7 98.1 434 98.1 394 98.1 354 106 315.3 121.4 278.9 136.3 243.6 157.6 212 184.8 184.8 212 157.6 243.6 136.3 278.9 121.4 315.3 106 354 98.1 394 98.1"/></svg>
